/* XPM */
static char *globedex64[] = {
/* columns rows colors chars-per-pixel */
"64 59 2 1 ",
"  c #E0E0A4A41E1E",
". c None",
/* pixels */
"................................................................",
"................................................................",
"................................................................",
"................................................................",
"................................................................",
"........................................ .......................",
".......................................   ......................",
"........................  ............     .....................",
".......................    ..........       ....................",
"......................      ........         ...................",
".....................        ......    ..     ..................",
"....................    ..    ....    ....     .................",
"...................    ....    ..    ......     ................",
"..................    ......        ........     ...............",
".................    ........      ..........     ..............",
"................    .........      ...........    ..............",
"...............    ..........      ............    .............",
"..............    ..........        ............    ............",
".............    ..........    ..    ............    ...........",
"............    ..........    ....    ............    ..........",
"...........     .........    ......    ............    .........",
"..........     .........    ........    ............    ........",
".........     .........    ..........    ............    .......",
"........     .........    ............    ............    ......",
".......     .........    ..............    ............    .....",
"......     .........    ...............     ............    ....",
".....     .........    .................     ............    ...",
"....     ..........   ...................     ............   ...",
"....    ............  ....................    ............. ....",
".....  .............  .....................  .............  ....",
".....  ............    ..................... ............    ...",
"....    ...........     ...................   ...........    ...",
"....     ...........     .................    ..........    ....",
".....     ...........     ...............    ..........    .....",
"......     ...........     .............    ..........    ......",
".......     ...........     ...........    ..........    .......",
"........    ............     .........    ..........    ........",
".........    ............     .......    ..........    .........",
"..........    ............     .....    ..........    ..........",
"...........    ............     ...    ..........    ...........",
"............    ............     .    ..........    ............",
".............    ............        ..........    .............",
"..............    ............      ..........    ..............",
"...............    ...........      .........    ...............",
"................    ..........      ........    ................",
".................    ........        ......    .................",
"..................    ......    ..    ....    ..................",
"...................    ....    ....    ..    ...................",
"....................    ..     .....        ....................",
".....................         .......      .....................",
"......................       .........    ......................",
".......................     ...........  .......................",
"........................   .....................................",
"......................... ......................................",
"................................................................",
"................................................................",
"................................................................",
"................................................................",
"................................................................"
};
