/* XPM */
static char *globedex16[] = {
/* columns rows colors chars-per-pixel */
"16 15 2 1 ",
"  c #E0E0A4A41E1E",
". c None",
/* pixels */
"................",
"................",
".....  ..  .....",
"....  .  .. ....",
"...  ..  ... ...",
"..  .. .. ... ..",
".. .. .... ... .",
". ... ..........",
". ... .... ... .",
".. ... .. ... ..",
"... ...  ... ...",
".... ..  .. ....",
".....  ..  .....",
"................",
"................"
};
