/* XPM */
static char *globedex32[] = {
/* columns rows colors chars-per-pixel */
"32 29 2 1 ",
"  c #E0E0A4A41E1E",
". c None",
/* pixels */
"................................",
"................................",
"................................",
"............ ......  ...........",
"...........   ....    ..........",
"..........     ..  ..  .........",
".........  ...    ....  ........",
"........  ....   ......  .......",
".......  .....    ......  ......",
"......  .....  ..  ......  .....",
".....  .....  ....  ......  ....",
"....  .....  ......  ......  ...",
"...  .....  ........  ......  ..",
"..  ...... ..........  ...... ..",
".. ....... ........... ...... ..",
"..  ......  .........  .....  ..",
"..   .....   .......   ....   ..",
"...   .....   .....   ....   ...",
"....   .....   ...   ....   ....",
".....   .....   .   ....   .....",
"......   ......    ....   ......",
".......   .....   ....   .......",
"........   ...     ..   ........",
".........   .   ..     .........",
"..........     ....   ..........",
"...........   ..................",
"................................",
"................................",
"................................"
};
