/* XPM */
static char *globedex128[] = {
/* columns rows colors chars-per-pixel */
"128 117 2 1 ",
"  c #E0E0A4A41E1E",
". c None",
/* pixels */
"................................................................................................................................",
"................................................................................................................................",
"................................................................................................................................",
"................................................................................................................................",
"................................................................................................................................",
"................................................................................................................................",
"................................................................................................................................",
"................................................................................................................................",
"................................................................................................................................",
"................................................................................................................................",
"................................................................................ ...............................................",
"...............................................................................   ..............................................",
"..............................................................................     .............................................",
".................................................   .........................       ............................................",
"................................................     .......................         ...........................................",
"...............................................       .....................           ..........................................",
"..............................................         ...................             .........................................",
".............................................           .................               ........................................",
"............................................             ...............                 .......................................",
"...........................................               .............                   ......................................",
"..........................................                 ...........         ..          .....................................",
".........................................                   .........         ....          ....................................",
"........................................         ..          .......         ......          ...................................",
".......................................         ....          .....         ........          ..................................",
"......................................         ......          ...         ..........          .................................",
".....................................         ........          .         ............          ................................",
"....................................         ..........                  ..............          ...............................",
"...................................         ............                ................          ..............................",
"..................................         ..............              ..................          .............................",
".................................         ................            ....................          ............................",
"................................         ..................          ......................          ...........................",
"...............................         ...................          .......................          ..........................",
"..............................         ...................            .......................          .........................",
".............................         ...................              .......................          ........................",
"............................         ...................                .......................          .......................",
"...........................         ...................                  .......................          ......................",
"..........................         ...................         ..         .......................          .....................",
".........................         ...................         ....         .......................          ....................",
"........................         ...................         ......         .......................          ...................",
".......................         ...................         ........         .......................          ..................",
"......................         ...................         ..........         .......................          .................",
".....................         ...................         ............         .......................          ................",
"....................         ...................         ..............         .......................          ...............",
"...................         ...................         ................         .......................          ..............",
"..................         ...................         ..................         .......................          .............",
".................         ...................         ....................         .......................          ............",
"................         ...................         ......................         .......................          ...........",
"...............         ...................         ........................         .......................          ..........",
"..............         ...................         ..........................         .......................          .........",
".............         ...................         ............................         .......................          ........",
"............         ...................         ..............................         .......................          .......",
"...........         ...................         ................................         .......................          ......",
"..........         ...................         ..................................         .......................          .....",
".........         ....................        ....................................         .......................         .....",
"........         ......................      ......................................         .......................       ......",
"........        ........................    ........................................         .......................     .......",
"........       ..........................  ..........................................       .........................   ........",
".........     ...........................  ...........................................     ........................... .........",
"..........   ...........................   ............................................   ...........................   ........",
"...........  ..........................     ............................................ ...........................     .......",
"...........  .........................       ..........................................   .........................       ......",
"..........    .......................         ........................................     .......................         .....",
".........      .......................         ......................................       .....................         ......",
"........        .......................         ....................................         ...................         .......",
"........         .......................         ..................................         ...................         ........",
".........         .......................         ................................         ...................         .........",
"..........         .......................         ..............................         ...................         ..........",
"...........         .......................         ............................         ...................         ...........",
"............         .......................         ..........................         ...................         ............",
".............         .......................         ........................          ..................         .............",
"..............         .......................         ......................          ..................         ..............",
"...............         .......................         ....................          ..................         ...............",
"................         .......................         ..................          ..................         ................",
".................         .......................         ................          ..................         .................",
"..................         .......................         ..............          ..................         ..................",
"...................         .......................         ............          ..................         ...................",
"....................         .......................         ..........          ..................         ....................",
".....................         .......................         ........          ..................         .....................",
"......................         .......................         ......          ..................         ......................",
".......................         .......................         ....          ..................         .......................",
"........................         .......................         ..          ..................         ........................",
".........................         .......................                   ..................         .........................",
"..........................         .......................                 ..................         ..........................",
"...........................         .......................               ..................         ...........................",
"............................         .......................             ..................         ............................",
".............................         .......................           ..................         .............................",
"..............................         ......................          ..................         ..............................",
"...............................         .....................           ................         ...............................",
"................................         ...................             ..............         ................................",
".................................         .................               ............         .................................",
"..................................         ...............                 ..........         ..................................",
"..................................          .............         .         ........         ...................................",
"...................................          ...........         ...         ......         ....................................",
"....................................          .........         .....         ....         .....................................",
".....................................          .......         .......         ..         ......................................",
"......................................          .....         .........                  .......................................",
".......................................          ...         ...........                ........................................",
"........................................                    .............              .........................................",
".........................................                  ...............            ..........................................",
"..........................................                .................          ...........................................",
"...........................................              ...................        ............................................",
"............................................            .....................      .............................................",
".............................................          .......................    ..............................................",
"..............................................        .........................  ...............................................",
"...............................................      ...........................................................................",
"................................................    ............................................................................",
".................................................  .............................................................................",
"................................................................................................................................",
"................................................................................................................................",
"................................................................................................................................",
"................................................................................................................................",
"................................................................................................................................",
"................................................................................................................................",
"................................................................................................................................",
"................................................................................................................................",
"................................................................................................................................",
"................................................................................................................................"
};
